<?xml version="1.0" encoding="utf-8"?>
<!-- Generator: Adobe Illustrator 24.0.2, SVG Export Plug-In . SVG Version: 6.00 Build 0)  -->
<svg version="1.1" id="Capa_1" xmlns="http://www.w3.org/2000/svg" xmlns:xlink="http://www.w3.org/1999/xlink" x="0px" y="0px"
	 viewBox="0 0 1739.7 1080" style="enable-background:new 0 0 1739.7 1080;" xml:space="preserve">
<style type="text/css">
	.st0{fill:#00F2FF;}
	.st1{fill:#00003A;}
	.st2{fill:#FFFFFF;}
</style>
<g>
	<g>
		<g>
			<g>
				<g>
					<polygon class="st1" points="444.3,498.94 517.05,498.94 517.05,452.47 444.3,452.47 444.3,367.09 520.68,367.09 
						520.68,320.62 394.24,320.62 394.24,645.21 444.3,645.21 					"/>
				</g>
				<g>
					<polygon class="st1" points="682.08,599.18 599.84,599.18 599.84,496.94 671.19,496.94 671.19,450.9 599.84,450.9 
						599.84,367.09 675.14,367.09 675.14,320.62 549.78,320.62 549.78,645.21 675.74,645.21 					"/>
				</g>
				<g>
					<path class="st1" d="M770.54,649.88c59.62,0,75.5-42.95,75.5-88.28c0-53.45-14.66-73.98-62.47-109.34
						c-28.08-20.55-32.37-31.6-32.37-54.17c0-21.18,4.23-35.1,20.24-35.1c16.37,0,20.12,13.47,20.12,35.71v15.75h48.85v-17.07
						c0-34.66-9.1-76.7-68.08-76.76c-57.67-0.06-70.41,42.44-70.41,84.55c0,47.29,18.37,64.65,52.75,91.8
						c34.27,27.03,41.67,37.69,41.67,72.03c0,20.75-4.97,38.94-24.18,38.94c-18.73,0-25.86-13.24-25.86-37.01v-19.74h-49.28v18.96
						C697.03,612.23,711.43,649.88,770.54,649.88z"/>
				</g>
				<g>
					<path class="st0" d="M348.27,352.48L348.27,352.48c0-17.59-14.26-31.86-31.86-31.86h0c-17.59,0-31.85,14.26-31.85,31.85v0
						c0,14.14,9.22,26.11,21.97,30.27v76.45c-12.75,4.16-21.97,16.13-21.97,30.27v0c0,4.86,1.12,9.45,3.07,13.58l-0.02,0.02
						l-19.67,18.58l-0.01,0.01c-4.52-2.47-9.71-3.87-15.22-3.87c-17.59,0-31.86,14.26-31.86,31.85v0
						c0,17.59,14.26,31.85,31.86,31.85c5.18,0,10.06-1.26,14.38-3.46l0.02,0.02l20.9,20.88c-2.2,4.31-3.44,9.22-3.44,14.41
						c0,17.59,14.27,31.86,31.86,31.86c8.79,0,16.76-3.56,22.52-9.34c5.76-5.76,9.32-13.71,9.32-22.52
						c0-17.59-14.25-31.84-31.84-31.84c-5.18,0-10.09,1.25-14.43,3.44l0,0l-20.91-20.91c2.2-4.33,3.47-9.21,3.47-14.4v0
						c0-4.86-1.12-9.45-3.07-13.57l0.02-0.02l19.67-18.58l0.01-0.01c4.52,2.46,9.71,3.87,15.22,3.87h0
						c17.59,0,31.86-14.26,31.86-31.86v0c0-14.13-9.21-26.1-21.95-30.27v-76.47C339.06,378.58,348.27,366.61,348.27,352.48z
						 M321.21,597.38v6.79v3.66h0.73h9.7v9.58h-10.43v10.43h-9.6v-9.68v-0.75h-5.14h-5.28v-5.28v-4.29h10.43v-10.45h2.81H321.21z"/>
				</g>
				<g>
					<path class="st1" d="M1057.9,320.62h141.18v47.06h-89.42v87.06h71.06v47.06h-71.06v101.18h93.68l-4.27,47.06H1057.9V320.62z"/>
				</g>
				<g>
					<path class="st1" d="M1242.32,633.81c-12.84-13.92-19.25-33.56-19.25-58.92V400.43c0-25.36,6.42-45.01,19.25-58.92
						c12.83-13.92,31.47-20.88,55.91-20.88c24.43,0,43.07,6.96,55.91,20.88c12.83,13.92,19.26,33.56,19.26,58.92V442h-48.25v-44.81
						c0-20.1-8.51-30.16-25.52-30.16c-17.02,0-25.52,10.06-25.52,30.16V578.6c0,19.8,8.5,29.69,25.52,29.69
						c17.01,0,25.52-9.9,25.52-29.69v-59.74h48.25v56.03c0,25.37-6.42,45.01-19.26,58.92c-12.84,13.92-31.48,20.88-55.91,20.88
						C1273.79,654.69,1255.15,647.73,1242.32,633.81z"/>
				</g>
				<g>
					<path class="st1" d="M1404.02,650.04h51.02V518.86h-51.02V650.04z M1404.02,325.26V442h51.02V325.26H1404.02z"/>
				</g>
				<g>
					
						<rect x="1429.53" y="469.51" transform="matrix(-1 -1.224647e-16 1.224647e-16 -1 2965.9678 960.8474)" class="st0" width="106.91" height="21.83"/>
				</g>
				<g>
					<path class="st0" d="M1541.22,504.15L1541.22,504.15c13.08,0,23.68-10.6,23.68-23.68v-0.08c0-13.08-10.6-23.68-23.68-23.68l0,0
						c-13.08,0-23.68,10.6-23.68,23.68v0.08C1517.53,493.54,1528.14,504.15,1541.22,504.15z"/>
				</g>
				<g>
					<rect x="1518.47" y="518.85" class="st0" width="45.03" height="131.2"/>
				</g>
				<g>
					<polygon class="st1" points="859.43,320.63 859.43,367.36 911.86,367.36 911.86,649.87 962.23,649.87 962.23,367.36 
						1014.95,367.36 1014.95,320.63 					"/>
				</g>
				<g>
					<rect x="1518.47" y="325.27" class="st0" width="45.03" height="116.73"/>
				</g>
				<g>
					<rect x="1403.61" y="452.64" class="st0" width="51.83" height="55.72"/>
				</g>
			</g>
		</g>
		<g>
			<g>
				<polygon class="st0" points="539.56,723.14 539.56,741.15 955.69,741.15 955.69,761.13 1013.65,761.13 1013.65,703.16 
					955.69,703.16 955.69,723.14 				"/>
			</g>
			<g>
				<path class="st0" d="M394.57,761.12h57.95v-57.95h-57.95V761.12z M428.68,718.29V746h-8.73v-27.71H428.68z"/>
			</g>
			<g>
				<rect x="510.53" y="703.16" class="st0" width="58.05" height="57.96"/>
			</g>
			<g>
				<rect x="452.52" y="761.13" class="st0" width="57.96" height="57.96"/>
			</g>
		</g>
	</g>
	<g>
		<path class="st1" d="M1049.37,752.99v-39.9h31.69v8.49h-21.89v7.47h14.59v8.21h-14.59v15.73H1049.37z"/>
		<path class="st1" d="M1095.43,753.56c-3.08,0-5.86-0.69-8.35-2.08c-2.49-1.39-4.46-3.26-5.9-5.61c-1.44-2.36-2.17-5-2.17-7.92
			c0-2.93,0.69-5.57,2.08-7.92c1.39-2.36,3.28-4.23,5.67-5.61c2.39-1.39,5.05-2.08,7.98-2.08c2.96,0,5.59,0.71,7.87,2.14
			c2.28,1.42,4.08,3.37,5.39,5.84c1.31,2.47,1.97,5.3,1.97,8.49v2.28h-21.49c0.42,0.95,0.98,1.79,1.68,2.51
			c0.7,0.72,1.55,1.28,2.54,1.68c0.99,0.4,2.05,0.6,3.19,0.6c1.25,0,2.39-0.2,3.42-0.6c1.03-0.4,1.9-0.96,2.62-1.68l6.1,5.41
			c-1.9,1.6-3.85,2.76-5.84,3.48C1100.19,753.19,1097.94,753.56,1095.43,753.56z M1088.3,734.63h12.6c-0.3-0.99-0.77-1.83-1.4-2.54
			c-0.63-0.7-1.36-1.26-2.2-1.65c-0.84-0.4-1.75-0.6-2.74-0.6c-1.03,0-1.96,0.19-2.79,0.57c-0.84,0.38-1.55,0.92-2.14,1.63
			C1089.05,732.74,1088.61,733.6,1088.3,734.63z"/>
		<path class="st1" d="M1126.5,753.56c-2.85,0-5.49-0.33-7.92-1c-2.43-0.66-4.54-1.64-6.33-2.93l4.39-6.21
			c1.9,1.14,3.63,1.97,5.19,2.48c1.56,0.51,3.1,0.77,4.62,0.77s2.73-0.22,3.62-0.66c0.89-0.44,1.34-1.02,1.34-1.74
			c0-0.57-0.25-1.03-0.74-1.4c-0.49-0.36-1.27-0.62-2.34-0.77l-5.99-0.91c-3-0.45-5.29-1.45-6.87-2.99
			c-1.58-1.54-2.37-3.54-2.37-6.01c0-2.05,0.52-3.81,1.57-5.27c1.04-1.46,2.54-2.58,4.47-3.36c1.94-0.78,4.26-1.17,6.95-1.17
			c2.2,0,4.39,0.31,6.55,0.91c2.17,0.61,4.18,1.52,6.04,2.73l-4.39,5.93c-1.63-0.95-3.19-1.64-4.67-2.08
			c-1.48-0.44-2.96-0.65-4.45-0.65c-1.18,0-2.13,0.2-2.85,0.6c-0.72,0.4-1.08,0.92-1.08,1.57c0,0.61,0.27,1.09,0.8,1.45
			c0.53,0.36,1.44,0.64,2.74,0.83l5.98,0.91c2.96,0.42,5.25,1.4,6.87,2.93c1.61,1.54,2.42,3.49,2.42,5.84
			c0,1.98-0.59,3.72-1.77,5.24c-1.18,1.52-2.78,2.73-4.82,3.62C1131.45,753.11,1129.12,753.56,1126.5,753.56z"/>
		<path class="st1" d="M1158.24,753.38c-3.61,0-6.34-0.81-8.18-2.42c-1.84-1.62-2.76-4-2.76-7.15v-13.28h-6.1v-7.69h6.1v-7.75
			l9.23-1.99v9.75h8.44v7.69h-8.44v11.46c0,1.33,0.29,2.27,0.88,2.82c0.59,0.55,1.63,0.83,3.11,0.83c0.76,0,1.45-0.05,2.08-0.14
			c0.63-0.09,1.32-0.26,2.08-0.48v7.47c-0.84,0.27-1.9,0.49-3.19,0.66C1160.2,753.3,1159.12,753.38,1158.24,753.38z"/>
		<path class="st1" d="M1173.18,720.04c-1.41,0-2.6-0.49-3.59-1.48c-0.99-0.99-1.48-2.19-1.48-3.59s0.49-2.6,1.48-3.59
			c0.99-0.99,2.18-1.48,3.59-1.48c1.41,0,2.6,0.49,3.59,1.48c0.99,0.99,1.48,2.19,1.48,3.59s-0.49,2.6-1.48,3.59
			C1175.78,719.55,1174.58,720.04,1173.18,720.04z M1168.56,752.99v-30.15h9.23v30.15H1168.56z"/>
		<path class="st1" d="M1193.42,752.99l-12.88-30.15h10.03l7.47,18.47l7.47-18.47h9.8l-12.88,30.15H1193.42z"/>
		<path class="st1" d="M1227.1,753.5c-2.13,0-4.02-0.4-5.67-1.2c-1.65-0.8-2.95-1.9-3.88-3.31c-0.93-1.41-1.4-3.02-1.4-4.84
			c0-2.89,1.09-5.12,3.28-6.7c2.18-1.58,5.23-2.37,9.15-2.37c2.36,0,4.64,0.28,6.84,0.86v-1.48c0-1.52-0.49-2.65-1.45-3.39
			c-0.97-0.74-2.4-1.11-4.3-1.11c-1.18,0-2.5,0.19-3.96,0.57c-1.46,0.38-3.18,0.99-5.16,1.83l-3.31-6.78
			c2.47-1.1,4.85-1.93,7.15-2.48c2.3-0.55,4.61-0.83,6.93-0.83c4.18,0,7.43,1,9.75,2.99c2.32,1.99,3.48,4.8,3.48,8.41v19.32h-9.12
			v-1.82c-1.22,0.84-2.5,1.43-3.85,1.79C1230.23,753.32,1228.74,753.5,1227.1,753.5z M1224.94,743.98c0,0.95,0.42,1.69,1.25,2.22
			c0.84,0.53,1.99,0.8,3.48,0.8c1.1,0,2.14-0.12,3.11-0.34c0.97-0.23,1.85-0.59,2.65-1.08v-3.88c-0.87-0.23-1.77-0.4-2.68-0.51
			c-0.91-0.11-1.84-0.17-2.79-0.17c-1.6,0-2.83,0.25-3.7,0.77C1225.37,742.3,1224.94,743.03,1224.94,743.98z"/>
		<path class="st1" d="M1250.02,752.99v-39.9l9.23-1.42v41.33H1250.02z"/>
		<path class="st1" d="M1290.09,753.38c-2.85,0-5.44-0.69-7.78-2.08c-2.34-1.39-4.19-3.25-5.56-5.59c-1.37-2.34-2.05-4.95-2.05-7.84
			c0-2.89,0.69-5.5,2.08-7.84c1.39-2.34,3.27-4.19,5.64-5.56s5.03-2.05,7.95-2.05c1.41,0,2.75,0.17,4.05,0.51
			c1.29,0.34,2.51,0.84,3.65,1.48v-11.34l9.23-1.42v41.33h-9.12v-2.22C1295.79,752.51,1293.09,753.38,1290.09,753.38z
			 M1291.69,745.52c1.29,0,2.47-0.2,3.53-0.6c1.06-0.4,2.01-1,2.85-1.79v-10.54c-0.8-0.76-1.75-1.34-2.85-1.74
			c-1.1-0.4-2.28-0.6-3.53-0.6c-1.48,0-2.82,0.33-4.02,1c-1.2,0.66-2.15,1.58-2.85,2.74c-0.7,1.16-1.05,2.46-1.05,3.9
			c0,1.45,0.35,2.75,1.05,3.9c0.7,1.16,1.65,2.07,2.85,2.74C1288.86,745.19,1290.2,745.52,1291.69,745.52z"/>
		<path class="st1" d="M1328.05,753.56c-3.08,0-5.86-0.69-8.35-2.08c-2.49-1.39-4.46-3.26-5.9-5.61c-1.44-2.36-2.17-5-2.17-7.92
			c0-2.93,0.69-5.57,2.08-7.92c1.39-2.36,3.28-4.23,5.67-5.61c2.39-1.39,5.05-2.08,7.98-2.08c2.96,0,5.59,0.71,7.87,2.14
			c2.28,1.42,4.08,3.37,5.39,5.84c1.31,2.47,1.97,5.3,1.97,8.49v2.28h-21.49c0.42,0.95,0.98,1.79,1.68,2.51
			c0.7,0.72,1.55,1.28,2.54,1.68c0.99,0.4,2.05,0.6,3.19,0.6c1.25,0,2.39-0.2,3.42-0.6c1.03-0.4,1.9-0.96,2.62-1.68l6.1,5.41
			c-1.9,1.6-3.85,2.76-5.84,3.48C1332.81,753.19,1330.56,753.56,1328.05,753.56z M1320.93,734.63h12.6c-0.3-0.99-0.77-1.83-1.4-2.54
			c-0.63-0.7-1.36-1.26-2.19-1.65c-0.84-0.4-1.75-0.6-2.74-0.6c-1.03,0-1.96,0.19-2.79,0.57c-0.84,0.38-1.55,0.92-2.14,1.63
			C1321.68,732.74,1321.23,733.6,1320.93,734.63z"/>
		<path class="st0" d="M1372.63,753.56c-3,0-5.71-0.68-8.12-2.05c-2.41-1.37-4.32-3.24-5.73-5.61c-1.41-2.37-2.11-5.03-2.11-7.95
			c0-2.97,0.7-5.62,2.11-7.98c1.41-2.36,3.32-4.23,5.73-5.61c2.41-1.39,5.12-2.08,8.12-2.08c2.47,0,4.83,0.49,7.07,1.45
			c2.24,0.97,4.14,2.35,5.7,4.13l-5.64,5.87c-1.06-1.22-2.15-2.1-3.25-2.65c-1.1-0.55-2.32-0.83-3.65-0.83c-1.33,0-2.53,0.33-3.59,1
			c-1.06,0.66-1.9,1.58-2.51,2.74c-0.61,1.16-0.91,2.48-0.91,3.96c0,1.44,0.31,2.74,0.94,3.9c0.63,1.16,1.49,2.07,2.59,2.74
			c1.1,0.67,2.34,1,3.7,1c1.25,0,2.41-0.27,3.48-0.8c1.06-0.53,2.09-1.35,3.08-2.45l5.47,5.7c-1.52,1.75-3.38,3.11-5.59,4.08
			C1377.32,753.07,1375.02,753.56,1372.63,753.56z"/>
		<path class="st0" d="M1393.38,720.04c-1.41,0-2.6-0.49-3.59-1.48c-0.99-0.99-1.48-2.19-1.48-3.59s0.49-2.6,1.48-3.59
			c0.99-0.99,2.18-1.48,3.59-1.48c1.41,0,2.6,0.49,3.59,1.48c0.99,0.99,1.48,2.19,1.48,3.59s-0.49,2.6-1.48,3.59
			S1394.78,720.04,1393.38,720.04z M1388.76,752.99v-30.15h9.23v30.15H1388.76z"/>
		<path class="st0" d="M1418.74,753.56c-3.08,0-5.86-0.69-8.35-2.08c-2.49-1.39-4.46-3.26-5.9-5.61c-1.44-2.36-2.17-5-2.17-7.92
			c0-2.93,0.69-5.57,2.08-7.92c1.39-2.36,3.28-4.23,5.67-5.61c2.39-1.39,5.05-2.08,7.98-2.08c2.96,0,5.59,0.71,7.87,2.14
			c2.28,1.42,4.08,3.37,5.39,5.84c1.31,2.47,1.97,5.3,1.97,8.49v2.28h-21.49c0.42,0.95,0.98,1.79,1.68,2.51
			c0.7,0.72,1.55,1.28,2.54,1.68c0.99,0.4,2.05,0.6,3.19,0.6c1.25,0,2.39-0.2,3.42-0.6c1.03-0.4,1.9-0.96,2.62-1.68l6.1,5.41
			c-1.9,1.6-3.85,2.76-5.84,3.48C1423.5,753.19,1421.25,753.56,1418.74,753.56z M1411.62,734.63h12.6c-0.3-0.99-0.77-1.83-1.4-2.54
			c-0.63-0.7-1.36-1.26-2.19-1.65s-1.75-0.6-2.74-0.6c-1.03,0-1.96,0.19-2.79,0.57c-0.84,0.38-1.55,0.92-2.14,1.63
			C1412.37,732.74,1411.92,733.6,1411.62,734.63z"/>
		<path class="st0" d="M1437.61,752.99v-30.15h9.23v2.05c2.28-1.75,4.98-2.62,8.09-2.62c2.36,0,4.44,0.51,6.24,1.54
			c1.8,1.03,3.22,2.45,4.25,4.28c1.03,1.82,1.54,3.93,1.54,6.33v18.58h-9.23v-17.33c0-1.67-0.49-3-1.48-3.99
			c-0.99-0.99-2.32-1.48-3.99-1.48c-1.18,0-2.21,0.21-3.11,0.63c-0.89,0.42-1.66,1.01-2.31,1.77v20.41H1437.61z"/>
		<path class="st0" d="M1487.03,753.56c-3,0-5.71-0.68-8.12-2.05c-2.41-1.37-4.32-3.24-5.73-5.61c-1.41-2.37-2.11-5.03-2.11-7.95
			c0-2.97,0.7-5.62,2.11-7.98c1.41-2.36,3.32-4.23,5.73-5.61c2.41-1.39,5.12-2.08,8.12-2.08c2.47,0,4.82,0.49,7.07,1.45
			c2.24,0.97,4.14,2.35,5.7,4.13l-5.64,5.87c-1.06-1.22-2.15-2.1-3.25-2.65c-1.1-0.55-2.32-0.83-3.65-0.83s-2.53,0.33-3.59,1
			c-1.06,0.66-1.9,1.58-2.51,2.74c-0.61,1.16-0.91,2.48-0.91,3.96c0,1.44,0.31,2.74,0.94,3.9c0.63,1.16,1.49,2.07,2.59,2.74
			c1.1,0.67,2.34,1,3.7,1c1.25,0,2.41-0.27,3.48-0.8c1.06-0.53,2.09-1.35,3.08-2.45l5.47,5.7c-1.52,1.75-3.38,3.11-5.59,4.08
			C1491.72,753.07,1489.42,753.56,1487.03,753.56z"/>
		<path class="st0" d="M1507.78,720.04c-1.41,0-2.6-0.49-3.59-1.48c-0.99-0.99-1.48-2.19-1.48-3.59s0.49-2.6,1.48-3.59
			c0.99-0.99,2.18-1.48,3.59-1.48c1.41,0,2.6,0.49,3.59,1.48c0.99,0.99,1.48,2.19,1.48,3.59s-0.49,2.6-1.48,3.59
			S1509.18,720.04,1507.78,720.04z M1503.16,752.99v-30.15h9.23v30.15H1503.16z"/>
		<path class="st0" d="M1527.73,753.5c-2.13,0-4.02-0.4-5.67-1.2c-1.65-0.8-2.95-1.9-3.88-3.31c-0.93-1.41-1.4-3.02-1.4-4.84
			c0-2.89,1.09-5.12,3.28-6.7c2.18-1.58,5.23-2.37,9.15-2.37c2.36,0,4.64,0.28,6.84,0.86v-1.48c0-1.52-0.49-2.65-1.45-3.39
			c-0.97-0.74-2.4-1.11-4.3-1.11c-1.18,0-2.5,0.19-3.96,0.57c-1.46,0.38-3.18,0.99-5.16,1.83l-3.31-6.78
			c2.47-1.1,4.85-1.93,7.15-2.48c2.3-0.55,4.61-0.83,6.93-0.83c4.18,0,7.43,1,9.75,2.99c2.32,1.99,3.48,4.8,3.48,8.41v19.32h-9.12
			v-1.82c-1.22,0.84-2.5,1.43-3.85,1.79C1530.85,753.32,1529.36,753.5,1527.73,753.5z M1525.56,743.98c0,0.95,0.42,1.69,1.25,2.22
			c0.84,0.53,1.99,0.8,3.48,0.8c1.1,0,2.14-0.12,3.11-0.34c0.97-0.23,1.85-0.59,2.65-1.08v-3.88c-0.87-0.23-1.77-0.4-2.68-0.51
			c-0.91-0.11-1.84-0.17-2.79-0.17c-1.6,0-2.83,0.25-3.7,0.77C1526,742.3,1525.56,743.03,1525.56,743.98z"/>
		<path class="st1" d="M1546.99,761.94l4.16-16.19h9.52l-6.78,16.19H1546.99z"/>
		<path class="st0" d="M931.55,821.79c-3.61,0-6.34-0.81-8.18-2.42c-1.84-1.62-2.76-4-2.76-7.15v-13.28h-6.1v-7.69h6.1v-7.75
			l9.23-1.99v9.75h8.44v7.69h-8.44v11.46c0,1.33,0.29,2.27,0.88,2.82s1.63,0.83,3.11,0.83c0.76,0,1.45-0.05,2.08-0.14
			c0.63-0.09,1.32-0.26,2.08-0.48v7.47c-0.84,0.27-1.9,0.49-3.19,0.66C933.51,821.7,932.42,821.79,931.55,821.79z"/>
		<path class="st0" d="M956.63,821.96c-3.08,0-5.86-0.69-8.35-2.08c-2.49-1.39-4.46-3.26-5.9-5.61c-1.44-2.36-2.17-5-2.17-7.92
			c0-2.93,0.69-5.57,2.08-7.92c1.39-2.36,3.28-4.23,5.67-5.61s5.05-2.08,7.98-2.08c2.96,0,5.59,0.71,7.87,2.14
			c2.28,1.42,4.08,3.37,5.39,5.84c1.31,2.47,1.97,5.3,1.97,8.49v2.28h-21.49c0.42,0.95,0.98,1.79,1.68,2.51
			c0.7,0.72,1.55,1.28,2.54,1.68c0.99,0.4,2.05,0.6,3.19,0.6c1.25,0,2.39-0.2,3.42-0.6c1.03-0.4,1.9-0.96,2.62-1.68l6.1,5.41
			c-1.9,1.6-3.85,2.76-5.84,3.48C961.39,821.6,959.14,821.96,956.63,821.96z M949.51,803.03h12.6c-0.3-0.99-0.77-1.83-1.4-2.54
			c-0.63-0.7-1.36-1.26-2.2-1.65c-0.84-0.4-1.75-0.6-2.74-0.6c-1.03,0-1.96,0.19-2.79,0.57c-0.84,0.38-1.55,0.92-2.14,1.63
			C950.26,801.14,949.81,802.01,949.51,803.03z"/>
		<path class="st0" d="M990.38,821.96c-3,0-5.71-0.68-8.12-2.05c-2.41-1.37-4.32-3.24-5.73-5.61c-1.41-2.37-2.11-5.03-2.11-7.95
			c0-2.97,0.7-5.62,2.11-7.98c1.41-2.36,3.32-4.23,5.73-5.61c2.41-1.39,5.12-2.08,8.12-2.08c2.47,0,4.83,0.49,7.07,1.45
			c2.24,0.97,4.14,2.35,5.7,4.13l-5.64,5.87c-1.06-1.22-2.15-2.1-3.25-2.65c-1.1-0.55-2.32-0.83-3.65-0.83s-2.53,0.33-3.59,1
			c-1.06,0.66-1.9,1.58-2.51,2.74c-0.61,1.16-0.91,2.48-0.91,3.96c0,1.44,0.31,2.74,0.94,3.9c0.63,1.16,1.49,2.07,2.59,2.74
			c1.1,0.67,2.34,1,3.7,1c1.25,0,2.41-0.27,3.48-0.8c1.06-0.53,2.09-1.35,3.08-2.45l5.47,5.7c-1.52,1.75-3.38,3.11-5.59,4.08
			C995.07,821.47,992.77,821.96,990.38,821.96z"/>
		<path class="st0" d="M1006.51,821.39v-30.15h9.23v2.05c2.28-1.75,4.98-2.62,8.09-2.62c2.36,0,4.44,0.51,6.24,1.54
			c1.8,1.03,3.22,2.45,4.25,4.28c1.03,1.82,1.54,3.93,1.54,6.33v18.58h-9.23v-17.33c0-1.67-0.49-3-1.48-3.99
			c-0.99-0.99-2.32-1.48-3.99-1.48c-1.18,0-2.21,0.21-3.11,0.63c-0.89,0.42-1.66,1.01-2.31,1.77v20.41H1006.51z"/>
		<path class="st0" d="M1056.33,821.96c-3.08,0-5.85-0.69-8.32-2.08c-2.47-1.39-4.43-3.26-5.87-5.61c-1.44-2.36-2.17-5-2.17-7.92
			c0-2.93,0.72-5.58,2.17-7.95c1.44-2.37,3.4-4.25,5.87-5.64c2.47-1.39,5.24-2.08,8.32-2.08c3.08,0,5.85,0.69,8.32,2.08
			c2.47,1.39,4.43,3.27,5.87,5.64c1.44,2.38,2.17,5.03,2.17,7.95c0,2.93-0.72,5.57-2.17,7.92s-3.4,4.23-5.87,5.61
			C1062.18,821.27,1059.4,821.96,1056.33,821.96z M1056.33,813.98c1.41,0,2.66-0.34,3.76-1.03c1.1-0.68,1.98-1.6,2.62-2.77
			c0.65-1.16,0.97-2.44,0.97-3.85c0-1.44-0.32-2.75-0.97-3.9c-0.65-1.16-1.53-2.08-2.65-2.76c-1.12-0.69-2.37-1.03-3.73-1.03
			c-1.37,0-2.61,0.34-3.73,1.03c-1.12,0.68-2,1.61-2.65,2.76c-0.65,1.16-0.97,2.46-0.97,3.9c0,1.41,0.32,2.69,0.97,3.85
			c0.65,1.16,1.53,2.08,2.65,2.77C1053.71,813.64,1054.96,813.98,1056.33,813.98z"/>
		<path class="st0" d="M1077.02,821.39v-39.9l9.23-1.42v41.33H1077.02z"/>
		<path class="st0" d="M1106.94,821.96c-3.08,0-5.85-0.69-8.32-2.08c-2.47-1.39-4.43-3.26-5.87-5.61c-1.44-2.36-2.17-5-2.17-7.92
			c0-2.93,0.72-5.58,2.17-7.95c1.44-2.37,3.4-4.25,5.87-5.64c2.47-1.39,5.24-2.08,8.32-2.08c3.08,0,5.85,0.69,8.32,2.08
			c2.47,1.39,4.43,3.27,5.87,5.64c1.44,2.38,2.17,5.03,2.17,7.95c0,2.93-0.72,5.57-2.17,7.92s-3.4,4.23-5.87,5.61
			C1112.8,821.27,1110.02,821.96,1106.94,821.96z M1106.94,813.98c1.41,0,2.66-0.34,3.76-1.03c1.1-0.68,1.98-1.6,2.62-2.77
			c0.65-1.16,0.97-2.44,0.97-3.85c0-1.44-0.32-2.75-0.97-3.9c-0.65-1.16-1.53-2.08-2.65-2.76c-1.12-0.69-2.37-1.03-3.73-1.03
			c-1.37,0-2.61,0.34-3.73,1.03c-1.12,0.68-2,1.61-2.65,2.76c-0.65,1.16-0.97,2.46-0.97,3.9c0,1.41,0.32,2.69,0.97,3.85
			c0.65,1.16,1.53,2.08,2.65,2.77C1104.33,813.64,1105.58,813.98,1106.94,813.98z"/>
		<path class="st0" d="M1143.02,833.59c-2.43,0-4.74-0.23-6.93-0.68c-2.19-0.46-4.17-1.1-5.96-1.94l3.08-7.18
			c1.63,0.76,3.25,1.33,4.84,1.71c1.6,0.38,3.19,0.57,4.79,0.57c2.17,0,3.8-0.44,4.9-1.31s1.65-2.19,1.65-3.93v-1.71
			c-2.36,1.6-4.96,2.39-7.81,2.39c-2.85,0-5.43-0.68-7.75-2.05s-4.16-3.22-5.53-5.56c-1.37-2.34-2.05-4.93-2.05-7.78
			s0.69-5.43,2.08-7.75c1.39-2.32,3.27-4.15,5.64-5.5c2.38-1.35,5.03-2.02,7.95-2.02c1.37,0,2.7,0.17,3.99,0.51
			c1.29,0.34,2.49,0.84,3.59,1.48v-1.6h9.12v29.7c0,4.07-1.34,7.19-4.02,9.38C1151.95,832.49,1148.08,833.59,1143.02,833.59z
			 M1143.2,813.75c1.25,0,2.4-0.19,3.45-0.57c1.04-0.38,1.97-0.93,2.77-1.65v-10.66c-0.8-0.68-1.72-1.22-2.77-1.63
			c-1.05-0.4-2.18-0.6-3.39-0.6c-1.48,0-2.82,0.33-4.02,1c-1.2,0.66-2.15,1.56-2.85,2.68c-0.7,1.12-1.05,2.39-1.05,3.79
			c0,1.44,0.34,2.75,1.03,3.9c0.68,1.16,1.63,2.07,2.82,2.73C1140.38,813.42,1141.71,813.75,1143.2,813.75z"/>
		<path class="st0" d="M1163.95,786.56l5.02-7.75h10.32l-7.98,7.75H1163.95z M1164.34,821.39v-30.15h9.23v30.15H1164.34z"/>
		<path class="st0" d="M1188.91,821.9c-2.13,0-4.02-0.4-5.67-1.2c-1.65-0.8-2.95-1.9-3.88-3.31c-0.93-1.41-1.4-3.02-1.4-4.84
			c0-2.89,1.09-5.12,3.28-6.7c2.18-1.58,5.23-2.37,9.15-2.37c2.36,0,4.64,0.28,6.84,0.86v-1.48c0-1.52-0.49-2.65-1.45-3.39
			c-0.97-0.74-2.4-1.11-4.3-1.11c-1.18,0-2.5,0.19-3.96,0.57c-1.46,0.38-3.18,0.99-5.16,1.83l-3.31-6.78
			c2.47-1.1,4.85-1.93,7.15-2.48c2.3-0.55,4.61-0.83,6.93-0.83c4.18,0,7.43,1,9.75,2.99c2.32,1.99,3.48,4.8,3.48,8.41v19.32h-9.12
			v-1.82c-1.22,0.84-2.5,1.43-3.85,1.79C1192.04,821.72,1190.55,821.9,1188.91,821.9z M1186.75,812.38c0,0.95,0.42,1.69,1.25,2.22
			c0.84,0.53,1.99,0.8,3.48,0.8c1.1,0,2.14-0.12,3.11-0.34c0.97-0.23,1.85-0.59,2.65-1.08v-3.88c-0.87-0.23-1.77-0.4-2.68-0.51
			c-0.91-0.11-1.84-0.17-2.79-0.17c-1.6,0-2.83,0.25-3.7,0.77C1187.18,810.7,1186.75,811.43,1186.75,812.38z"/>
		<path class="st1" d="M1237.99,821.96c-3.08,0-5.86-0.69-8.35-2.08c-2.49-1.39-4.46-3.26-5.9-5.61c-1.44-2.36-2.17-5-2.17-7.92
			c0-2.93,0.69-5.57,2.08-7.92c1.39-2.36,3.28-4.23,5.67-5.61c2.39-1.39,5.05-2.08,7.98-2.08c2.96,0,5.59,0.71,7.87,2.14
			c2.28,1.42,4.08,3.37,5.39,5.84c1.31,2.47,1.97,5.3,1.97,8.49v2.28h-21.49c0.42,0.95,0.98,1.79,1.68,2.51
			c0.7,0.72,1.55,1.28,2.54,1.68c0.99,0.4,2.05,0.6,3.19,0.6c1.25,0,2.39-0.2,3.42-0.6c1.03-0.4,1.9-0.96,2.62-1.68l6.1,5.41
			c-1.9,1.6-3.85,2.76-5.84,3.48C1242.75,821.6,1240.5,821.96,1237.99,821.96z M1230.86,803.03h12.6c-0.3-0.99-0.77-1.83-1.4-2.54
			c-0.63-0.7-1.36-1.26-2.19-1.65c-0.84-0.4-1.75-0.6-2.74-0.6c-1.03,0-1.96,0.19-2.79,0.57c-0.84,0.38-1.55,0.92-2.14,1.63
			C1231.62,801.14,1231.17,802.01,1230.86,803.03z"/>
		<path class="st0" d="M1272.59,788.44c-1.41,0-2.6-0.49-3.59-1.48c-0.99-0.99-1.48-2.19-1.48-3.59s0.49-2.6,1.48-3.59
			c0.99-0.99,2.18-1.48,3.59-1.48c1.41,0,2.6,0.49,3.59,1.48c0.99,0.99,1.48,2.19,1.48,3.59s-0.49,2.6-1.48,3.59
			C1275.19,787.95,1273.99,788.44,1272.59,788.44z M1267.97,821.39v-30.15h9.23v30.15H1267.97z"/>
		<path class="st0" d="M1282.91,821.39v-30.15h9.23v2.05c2.28-1.75,4.98-2.62,8.09-2.62c2.36,0,4.44,0.51,6.24,1.54
			c1.8,1.03,3.22,2.45,4.25,4.28c1.03,1.82,1.54,3.93,1.54,6.33v18.58h-9.23v-17.33c0-1.67-0.49-3-1.48-3.99
			c-0.99-0.99-2.32-1.48-3.99-1.48c-1.18,0-2.21,0.21-3.11,0.63c-0.89,0.42-1.66,1.01-2.31,1.77v20.41H1282.91z"/>
		<path class="st0" d="M1317.73,821.39v-30.15h9.23v2.05c2.28-1.75,4.98-2.62,8.09-2.62c2.36,0,4.44,0.51,6.24,1.54
			c1.8,1.03,3.22,2.45,4.25,4.28c1.03,1.82,1.54,3.93,1.54,6.33v18.58h-9.23v-17.33c0-1.67-0.49-3-1.48-3.99
			c-0.99-0.99-2.32-1.48-3.99-1.48c-1.18,0-2.21,0.21-3.11,0.63c-0.89,0.42-1.66,1.01-2.31,1.77v20.41H1317.73z"/>
		<path class="st0" d="M1367.55,821.96c-3.08,0-5.85-0.69-8.32-2.08c-2.47-1.39-4.43-3.26-5.87-5.61c-1.44-2.36-2.17-5-2.17-7.92
			c0-2.93,0.72-5.58,2.17-7.95c1.44-2.37,3.4-4.25,5.87-5.64c2.47-1.39,5.24-2.08,8.32-2.08c3.08,0,5.85,0.69,8.32,2.08
			c2.47,1.39,4.43,3.27,5.87,5.64c1.44,2.38,2.17,5.03,2.17,7.95c0,2.93-0.72,5.57-2.17,7.92s-3.4,4.23-5.87,5.61
			C1373.41,821.27,1370.63,821.96,1367.55,821.96z M1367.55,813.98c1.41,0,2.66-0.34,3.76-1.03c1.1-0.68,1.98-1.6,2.62-2.77
			c0.65-1.16,0.97-2.44,0.97-3.85c0-1.44-0.32-2.75-0.97-3.9c-0.65-1.16-1.53-2.08-2.65-2.76c-1.12-0.69-2.37-1.03-3.73-1.03
			c-1.37,0-2.61,0.34-3.73,1.03c-1.12,0.68-2,1.61-2.65,2.76c-0.65,1.16-0.97,2.46-0.97,3.9c0,1.41,0.32,2.69,0.97,3.85
			c0.65,1.16,1.53,2.08,2.65,2.77C1364.94,813.64,1366.19,813.98,1367.55,813.98z"/>
		<path class="st0" d="M1397.31,821.39l-12.88-30.15h10.03l7.47,18.47l7.47-18.47h9.8l-12.88,30.15H1397.31z"/>
		<path class="st0" d="M1431,821.9c-2.13,0-4.02-0.4-5.67-1.2c-1.65-0.8-2.95-1.9-3.88-3.31c-0.93-1.41-1.4-3.02-1.4-4.84
			c0-2.89,1.09-5.12,3.28-6.7c2.18-1.58,5.23-2.37,9.15-2.37c2.36,0,4.64,0.28,6.84,0.86v-1.48c0-1.52-0.49-2.65-1.45-3.39
			c-0.97-0.74-2.4-1.11-4.3-1.11c-1.18,0-2.5,0.19-3.96,0.57c-1.46,0.38-3.18,0.99-5.16,1.83l-3.31-6.78
			c2.47-1.1,4.85-1.93,7.15-2.48c2.3-0.55,4.61-0.83,6.93-0.83c4.18,0,7.43,1,9.75,2.99c2.32,1.99,3.48,4.8,3.48,8.41v19.32h-9.12
			v-1.82c-1.22,0.84-2.5,1.43-3.85,1.79C1434.12,821.72,1432.63,821.9,1431,821.9z M1428.83,812.38c0,0.95,0.42,1.69,1.25,2.22
			c0.84,0.53,1.99,0.8,3.48,0.8c1.1,0,2.14-0.12,3.11-0.34c0.97-0.23,1.85-0.59,2.65-1.08v-3.88c-0.87-0.23-1.77-0.4-2.68-0.51
			c-0.91-0.11-1.84-0.17-2.79-0.17c-1.6,0-2.83,0.25-3.7,0.77C1429.27,810.7,1428.83,811.43,1428.83,812.38z"/>
		<path class="st0" d="M1468.5,821.96c-3,0-5.71-0.68-8.12-2.05c-2.41-1.37-4.32-3.24-5.73-5.61c-1.41-2.37-2.11-5.03-2.11-7.95
			c0-2.97,0.7-5.62,2.11-7.98c1.41-2.36,3.32-4.23,5.73-5.61c2.41-1.39,5.12-2.08,8.12-2.08c2.47,0,4.83,0.49,7.07,1.45
			c2.24,0.97,4.14,2.35,5.7,4.13l-5.64,5.87c-1.06-1.22-2.15-2.1-3.25-2.65c-1.1-0.55-2.32-0.83-3.65-0.83c-1.33,0-2.53,0.33-3.59,1
			c-1.06,0.66-1.9,1.58-2.51,2.74c-0.61,1.16-0.91,2.48-0.91,3.96c0,1.44,0.31,2.74,0.94,3.9c0.63,1.16,1.49,2.07,2.59,2.74
			c1.1,0.67,2.34,1,3.7,1c1.25,0,2.41-0.27,3.48-0.8c1.06-0.53,2.09-1.35,3.08-2.45l5.47,5.7c-1.52,1.75-3.38,3.11-5.59,4.08
			C1473.2,821.47,1470.9,821.96,1468.5,821.96z"/>
		<path class="st0" d="M1489.25,788.44c-1.41,0-2.6-0.49-3.59-1.48c-0.99-0.99-1.48-2.19-1.48-3.59s0.49-2.6,1.48-3.59
			c0.99-0.99,2.18-1.48,3.59-1.48c1.41,0,2.6,0.49,3.59,1.48c0.99,0.99,1.48,2.19,1.48,3.59s-0.49,2.6-1.48,3.59
			C1491.85,787.95,1490.66,788.44,1489.25,788.44z M1484.63,821.39v-30.15h9.23v30.15H1484.63z"/>
		<path class="st0" d="M1514.56,821.96c-3.08,0-5.85-0.69-8.32-2.08c-2.47-1.39-4.43-3.26-5.87-5.61c-1.44-2.36-2.17-5-2.17-7.92
			c0-2.93,0.72-5.58,2.17-7.95c1.44-2.37,3.4-4.25,5.87-5.64c2.47-1.39,5.24-2.08,8.32-2.08c3.08,0,5.85,0.69,8.32,2.08
			c2.47,1.39,4.43,3.27,5.87,5.64c1.44,2.38,2.17,5.03,2.17,7.95c0,2.93-0.72,5.57-2.17,7.92s-3.4,4.23-5.87,5.61
			C1520.41,821.27,1517.64,821.96,1514.56,821.96z M1514.56,813.98c1.41,0,2.66-0.34,3.76-1.03c1.1-0.68,1.98-1.6,2.62-2.77
			c0.65-1.16,0.97-2.44,0.97-3.85c0-1.44-0.32-2.75-0.97-3.9c-0.65-1.16-1.53-2.08-2.65-2.76c-1.12-0.69-2.37-1.03-3.73-1.03
			c-1.37,0-2.61,0.34-3.73,1.03c-1.12,0.68-2,1.61-2.65,2.76c-0.65,1.16-0.97,2.46-0.97,3.9c0,1.41,0.32,2.69,0.97,3.85
			c0.65,1.16,1.53,2.08,2.65,2.77C1511.95,813.64,1513.19,813.98,1514.56,813.98z M1509.54,786.56l5.02-7.75h10.32l-7.98,7.75
			H1509.54z"/>
		<path class="st0" d="M1535.25,821.39v-30.15h9.23v2.05c2.28-1.75,4.98-2.62,8.09-2.62c2.36,0,4.44,0.51,6.24,1.54
			c1.8,1.03,3.22,2.45,4.25,4.28c1.03,1.82,1.54,3.93,1.54,6.33v18.58h-9.23v-17.33c0-1.67-0.49-3-1.48-3.99
			c-0.99-0.99-2.32-1.48-3.99-1.48c-1.18,0-2.21,0.21-3.11,0.63c-0.89,0.42-1.66,1.01-2.31,1.77v20.41H1535.25z"/>
	</g>
</g>
</svg>
